# This file uses centimeters as units for non-parametric coordinates.

mtllib footLeft.mtl
v -1.122089 2.000000 -1.146988
v 0.692625 2.000000 -1.040158
v 3.143537 2.000000 -1.230373
v 4.309781 2.000000 -1.367861
v -1.886725 2.000000 -0.382329
v 5.794675 2.000000 -0.772962
v -1.886725 2.000000 0.382329
v 5.884200 2.000000 -0.013562
v -1.122089 2.000000 1.146988
v 0.692625 2.000000 1.146988
v 3.412115 2.000000 1.047828
v 4.577394 2.000000 0.902167
v 2.876011 1.859119 1.088916
v 2.644769 1.859119 -0.973056
v 1.225840 1.859119 1.126454
v 1.225840 1.859119 -0.957949
v -1.122089 1.554672 -1.146988
v 0.692625 1.554672 -1.146988
v -1.886725 1.554672 -0.382329
v 2.644769 1.554672 -0.973056
v 3.143537 1.554672 -1.230373
v 4.309781 1.554672 -1.367861
v 5.794675 1.554672 -0.772962
v -1.886725 1.554672 0.382329
v 5.884200 1.554672 -0.013561
v 0.692625 1.554672 1.146988
v -1.122089 1.554672 1.146988
v 3.412115 1.554672 1.047829
v 2.876011 1.554672 1.088916
v 4.577394 1.554672 0.902169
v 1.225840 1.554672 1.126454
v 1.225840 1.554672 -0.957949
v 1.052740 1.005180 1.099635
v 2.430167 1.005180 0.876911
v 0.607657 1.005180 1.119709
v -0.907117 1.005180 1.119709
v -1.545373 1.005180 0.372199
v -1.545373 1.005180 -0.375312
v -0.907117 1.005180 -1.122822
v 0.607657 1.005180 -1.122822
v 1.052740 1.005180 -0.938023
v 2.237146 1.005180 -0.952791
v 2.653476 1.005180 -0.980025
v 3.626959 1.005180 -1.103915
v 4.866427 1.005180 -0.645438
v 4.941157 1.005180 -0.014813
v 3.850342 1.005180 0.645552
v 2.877663 1.005180 0.856275
v 0.634484 -0.837693 -1.061302
v 1.093549 -0.837693 -0.886642
v 1.093549 -0.837693 1.039216
v 0.634484 -0.837693 1.058188
v -0.927876 -0.837693 1.058188
v -1.586182 -0.837693 0.351692
v -1.586182 -0.837693 -0.354805
v -0.927876 -0.837693 -1.061302
v 1.171331 0.364635 -0.938023
v 1.171331 0.364635 1.099635
v -0.967442 0.364635 1.119709
v 0.685616 0.364635 1.119709
v -1.663963 0.364635 0.372199
v -1.663963 0.364635 -0.375312
v -0.967442 0.364635 -1.122822
v 0.685616 0.364635 -1.122822
vt 0.000000 0.000000
vt 0.333333 0.000000
vt 0.666667 0.000000
vt 1.000000 0.000000
vt 0.000000 0.333333
vt 1.000000 0.333333
vt 0.000000 0.666667
vt 1.000000 0.666667
vt 0.000000 1.000000
vt 0.333333 1.000000
vt 0.666667 1.000000
vt 1.000000 1.000000
vt 0.600377 1.000000
vt 0.600377 0.000000
vt 0.402241 1.000000
vt 0.402241 0.000000
vt 0.000000 0.000000
vt 0.333333 0.000000
vt 0.000000 0.333333
vt 0.600377 0.000000
vt 0.666667 0.000000
vt 0.666667 0.000000
vt 1.000000 0.000000
vt 1.000000 0.333333
vt 0.000000 0.333333
vt 0.000000 0.666667
vt 1.000000 0.333333
vt 1.000000 0.666667
vt 0.000000 0.666667
vt 0.333333 1.000000
vt 0.000000 1.000000
vt 0.666667 1.000000
vt 0.600377 1.000000
vt 1.000000 0.666667
vt 1.000000 1.000000
vt 0.666667 1.000000
vt 0.600377 1.000000
vt 0.402241 1.000000
vt 0.402241 0.000000
vt 0.600377 0.000000
vt 0.402241 1.000000
vt 0.333333 1.000000
vt 0.333333 0.000000
vt 0.402241 0.000000
vt 0.414424 0.003455
vt 0.616713 0.003455
vt 0.682342 0.000000
vt 0.903499 0.016970
vt 0.972564 0.338462
vt 0.948444 0.652804
vt 0.831139 0.959996
vt 0.609982 0.943026
vt 0.550963 0.860328
vt 0.377563 0.853270
vt 0.308662 0.954386
vt 0.162197 1.000000
vt 0.000000 0.741558
vt 0.013044 0.428540
vt 0.201188 0.064315
vt 0.347794 0.015333
vt 0.414424 0.003455
vt 0.616713 0.003455
vt 0.682342 0.000000
vt 0.903499 0.016970
vt 0.972564 0.338462
vt 0.948444 0.652804
vt 0.831139 0.959996
vt 0.609982 0.943026
vt 0.550963 0.860328
vt 0.377563 0.853270
vt 0.308662 0.954386
vt 0.162197 1.000000
vt 0.000000 0.741558
vt 0.013044 0.428540
vt 0.201188 0.064315
vt 0.347794 0.015333
vt 0.609982 0.943026
vt 0.550963 0.860328
vt 0.616713 0.003455
vt 0.682342 0.000000
vt 0.903499 0.016970
vt 0.972564 0.338462
vt 0.948444 0.652804
vt 0.831139 0.959996
vt 0.550963 0.860328
vt 0.616713 0.003455
vt 0.000000 0.000000
vt 1.000000 0.000000
vt 0.908923 0.287718
vt 0.000000 0.000000
vt 0.239168 0.000000
vt 0.000000 1.000000
vt 0.903499 0.016970
vt 0.682342 0.000000
vt 0.972564 0.338462
vt 0.948444 0.652804
vt 0.831139 0.959996
vt 0.609982 0.943026
vn -0.010646 -0.000000 -0.999943
vn -0.010646 -0.000000 -0.999943
vn -0.010646 -0.000000 -0.999943
vn -0.010646 -0.000000 -0.999943
vn 0.000000 1.000000 -0.000000
vn 0.000000 1.000000 -0.000000
vn 0.000000 1.000000 -0.000000
vn 0.000000 1.000000 -0.000000
vn 0.993123 -0.000000 -0.117079
vn 0.993123 -0.000000 -0.117079
vn 0.993123 -0.000000 -0.117079
vn 0.993123 -0.000000 -0.117079
vn 0.573868 0.000003 0.818948
vn 0.573868 0.000003 0.818948
vn 0.573868 0.000003 0.818948
vn 0.573868 0.000002 0.818948
vn -0.458486 -0.000000 -0.888702
vn -0.458486 -0.000000 -0.888702
vn -0.458486 -0.000000 -0.888702
vn -0.458486 -0.000000 -0.888702
vn 0.000000 1.000000 -0.000000
vn 0.000000 1.000000 -0.000000
vn 0.000000 1.000000 -0.000000
vn 0.000000 1.000000 -0.000000
vn -0.257180 0.965888 0.030319
vn -0.254585 0.966607 0.029283
vn -0.254585 0.966607 0.029283
vn -0.252028 0.967307 0.028264
vn 0.000000 1.000000 -0.000000
vn 0.000000 1.000000 -0.000000
vn 0.000000 1.000000 -0.000000
vn 0.000000 1.000000 -0.000000
vn -0.707117 -0.000001 -0.707096
vn -0.707117 -0.000001 -0.707096
vn -0.707117 -0.000001 -0.707096
vn -0.707117 -0.000000 -0.707096
vn -1.000000 0.000000 0.000000
vn -1.000000 0.000000 0.000000
vn -1.000000 0.000000 0.000000
vn -1.000000 0.000000 0.000000
vn -0.707117 0.000000 0.707096
vn -0.707117 -0.000001 0.707096
vn -0.707117 -0.000001 0.707096
vn -0.707117 -0.000002 0.707097
vn 0.057151 0.232891 -0.970822
vn 0.028859 0.117599 -0.992642
vn 0.028859 0.117599 -0.992642
vn -0.000000 -0.000001 -1.000000
vn 0.000000 0.000000 1.000000
vn -0.000000 -0.000001 1.000000
vn -0.000000 -0.000001 1.000000
vn -0.000000 -0.000001 1.000000
vn 0.206975 0.228221 -0.951355
vn 0.265987 0.127450 -0.955514
vn 0.265987 0.127450 -0.955514
vn 0.334149 -0.000000 -0.942520
vn 0.255444 0.966824 -0.000000
vn 0.255444 0.966824 -0.000000
vn 0.255444 0.966824 -0.000000
vn 0.255444 0.966824 -0.000000
vn 0.000000 1.000000 -0.000000
vn 0.000000 1.000000 -0.000000
vn 0.000000 1.000000 -0.000000
vn 0.000000 1.000000 -0.000000
vn 0.000000 1.000000 -0.000000
vn 0.000000 1.000000 -0.000000
vn 0.000000 1.000000 -0.000000
vn 0.000000 1.000000 -0.000000
vn -0.117080 -0.000000 -0.993123
vn -0.117080 -0.000000 -0.993123
vn -0.117080 -0.000000 -0.993123
vn -0.117080 -0.000000 -0.993123
vn 0.371898 -0.000000 -0.928273
vn 0.371898 -0.000000 -0.928273
vn 0.371898 -0.000000 -0.928273
vn 0.371898 -0.000000 -0.928273
vn 0.124036 0.000004 0.992278
vn 0.124036 0.000002 0.992278
vn 0.124036 0.000002 0.992278
vn 0.124035 0.000001 0.992278
vn -0.111131 -0.314707 -0.942661
vn -0.115325 -0.318025 -0.941042
vn -0.115325 -0.318025 -0.941042
vn -0.119550 -0.321360 -0.939381
vn 0.275328 -0.672242 -0.687230
vn 0.273017 -0.649761 -0.709417
vn 0.273017 -0.649761 -0.709417
vn 0.270412 -0.626460 -0.731043
vn 0.502470 -0.862563 -0.059236
vn 0.502543 -0.862510 -0.059398
vn 0.502543 -0.862510 -0.059398
vn 0.502615 -0.862456 -0.059561
vn 0.386713 -0.665136 0.638786
vn 0.383160 -0.711127 0.589481
vn 0.383160 -0.711127 0.589481
vn 0.378101 -0.752263 0.539575
vn 0.105063 -0.531530 0.840498
vn 0.142772 -0.508003 0.849441
vn 0.142772 -0.508003 0.849441
vn 0.185785 -0.479649 0.857567
vn 0.000000 -1.000000 0.000000
vn 0.000000 -1.000000 -0.000000
vn 0.000000 -1.000000 0.000000
vn 0.000000 -1.000000 -0.000000
vn 0.000000 -1.000000 -0.000000
vn 0.000000 -1.000000 0.000000
vn 0.038481 0.000000 0.999259
vn 0.038482 0.000000 0.999259
vn 0.038482 0.000000 0.999259
vn 0.038482 0.000000 0.999259
vn 0.022742 0.000000 0.999741
vn 0.022742 0.000000 0.999741
vn 0.022742 0.000000 0.999741
vn 0.022742 0.000000 0.999741
vn 0.076417 0.000000 0.997076
vn 0.076417 0.000001 0.997076
vn 0.076417 0.000001 0.997076
vn 0.076417 0.000001 0.997076
vn -0.458482 0.004007 -0.888694
vn -0.212626 0.009024 -0.977092
vn -0.212626 0.009024 -0.977092
vn -0.065271 0.011622 -0.997800
vn 0.070407 -0.388726 0.918660
vn 0.056296 -0.389111 0.919469
vn 0.056296 -0.389111 0.919469
vn 0.042429 -0.389413 0.920085
vn 0.170161 -0.985375 -0.009012
vn 0.057034 -0.998354 -0.006017
vn 0.000000 -1.000000 0.000000
vn 0.000000 -1.000000 0.000000
vn -0.000000 -0.049584 0.998770
vn -0.000000 -0.049584 0.998770
vn -0.000000 -0.049584 0.998770
vn 0.000000 -0.049585 0.998770
vn -0.644277 -0.412112 0.644259
vn -0.682699 -0.365909 0.632481
vn -0.682699 -0.365909 0.632481
vn -0.722241 -0.313169 0.616679
vn -0.849440 -0.527685 0.000000
vn -0.849440 -0.527685 0.000000
vn -0.849440 -0.527685 0.000000
vn -0.849440 -0.527685 0.000000
vn -0.645245 -0.409076 -0.645226
vn -0.683592 -0.362799 -0.633308
vn -0.683592 -0.362799 -0.633308
vn -0.723029 -0.310011 -0.617351
vn 0.000000 0.000000 1.000000
vn 0.000000 0.000000 1.000000
vn 0.000000 0.000000 1.000000
vn 0.000000 0.000000 1.000000
vn -0.724998 0.134226 0.675545
vn -0.741987 0.103525 0.662372
vn -0.741987 0.103525 0.662372
vn -0.758552 0.071438 0.647684
vn -0.983290 0.182046 -0.000000
vn -0.983290 0.182046 -0.000000
vn -0.983290 0.182046 -0.000000
vn -0.983290 0.182046 -0.000000
vn -0.724998 0.134225 -0.675545
vn -0.741988 0.103525 -0.662372
vn -0.741988 0.103525 -0.662372
vn -0.758553 0.071439 -0.647684
vn 0.038410 -0.060782 0.997412
vn 0.041692 -0.058630 0.997409
vn 0.041692 -0.058630 0.997409
vn 0.044984 -0.056472 0.997390
vn -0.000000 -0.043935 -0.999034
vn -0.000000 -0.043935 -0.999034
vn -0.000000 -0.043935 -0.999034
vn -0.000000 -0.043935 -0.999034
vn 0.330947 -0.138105 -0.933489
vn 0.355398 -0.119624 -0.927029
vn 0.355398 -0.119624 -0.927029
vn 0.381563 -0.099416 -0.918981
vn 0.021085 -0.374724 0.926897
vn 0.085143 -0.251253 0.964169
vn 0.085143 -0.251253 0.964169
vn 0.158854 -0.097992 0.982427
vn -0.010642 -0.028967 -0.999524
vn -0.011551 -0.030641 -0.999464
vn -0.011551 -0.030641 -0.999464
vn -0.012461 -0.032315 -0.999400
vn 0.354833 0.065694 -0.932619
vn 0.368679 0.056381 -0.927845
vn 0.368679 0.056381 -0.927845
vn 0.383046 0.046620 -0.922552
vn 0.041236 -0.052806 0.997753
vn 0.041236 -0.052806 0.997753
vn 0.041236 -0.052806 0.997753
vn 0.041236 -0.052806 0.997753
vn -0.000000 -0.000000 -1.000000
vn -0.000000 -0.000000 -1.000000
vn -0.000000 -0.000000 -1.000000
vn 0.000000 0.000000 -1.000000
vn 0.997914 -0.064558 0.000000
vn 0.997914 -0.064558 0.000000
vn 0.997914 -0.064558 0.000000
vn 0.997914 -0.064558 0.000000
vn 0.482369 -0.875596 -0.025547
vn 0.453505 -0.891254 0.000000
vn 0.159553 0.029540 0.986747
vn 0.159553 0.029540 0.986747
vn 0.159553 0.029540 0.986747
vn -0.012468 -0.002308 -0.999920
vn -0.012468 -0.002308 -0.999920
vn -0.012468 -0.002308 -0.999920
vn 0.041292 0.007645 0.999118
vn 0.043172 0.006565 0.999046
vn 0.043172 0.006565 0.999046
vn 0.045055 0.005484 0.998969
vn 0.354899 -0.062822 -0.932792
vn 0.354899 -0.062822 -0.932792
vn 0.354899 -0.062822 -0.932792
vn 0.354899 -0.062822 -0.932792
vn 0.000000 -0.051101 -0.998694
vn -0.000000 -0.051101 -0.998694
vn -0.000000 -0.051101 -0.998694
vn -0.000000 -0.051101 -0.998694
vn -0.730351 -0.058855 -0.680532
vn -0.730351 -0.058855 -0.680532
vn -0.730351 -0.058855 -0.680532
vn -0.730351 -0.058855 -0.680532
vn -0.997914 -0.064557 0.000000
vn -0.997914 -0.064558 0.000000
vn -0.997914 -0.064558 0.000000
vn -0.997914 -0.064558 0.000000
vn -0.730350 -0.058855 0.680532
vn -0.730350 -0.058855 0.680533
vn -0.730350 -0.058855 0.680533
vn -0.730350 -0.058855 0.680533
vn 0.000000 -0.051101 0.998694
vn 0.000000 -0.051101 0.998694
vn 0.000000 -0.051101 0.998694
vn 0.000000 -0.051101 0.998694
usemtl lambert16SG
f 16/16/1 14/14/2 32/39/3
f 32/39/3 14/14/2 20/40/4
usemtl lambert12SG
f 15/15/5 13/13/6 16/16/7
f 16/16/7 13/13/6 14/14/8
usemtl lambert16SG
f 25/28/9 23/27/10 8/8/11
f 8/8/11 23/27/10 6/6/12
f 30/35/13 25/34/14 12/12/15
f 12/12/15 25/34/14 8/8/16
f 3/3/17 21/21/18 14/14/19
f 14/14/19 21/21/18 20/20/20
usemtl lambert12SG
f 11/11/21 12/12/22 3/3/23
f 3/3/23 12/12/22 4/4/24
f 3/3/25 14/14/26 11/11/27
f 11/11/27 14/14/26 13/13/28
f 12/12/29 8/8/30 4/4/31
f 4/4/31 8/8/30 6/6/32
usemtl lambert16SG
f 1/1/33 17/17/34 5/5/35
f 5/5/35 17/17/34 19/19/36
f 5/5/37 19/25/38 7/7/39
f 7/7/39 19/25/38 24/26/40
f 7/7/41 24/29/42 9/9/43
f 9/9/43 24/29/42 27/31/44
f 2/2/45 18/18/46 1/1/47
f 1/1/47 18/18/46 17/17/48
f 10/10/49 9/9/50 26/30/51
f 26/30/51 9/9/50 27/31/52
f 2/2/53 16/16/54 18/43/55
f 18/43/55 16/16/54 32/44/56
usemtl lambert12SG
f 15/15/57 16/16/58 10/10/59
f 10/10/59 16/16/58 2/2/60
f 10/10/61 2/2/62 9/9/63
f 9/9/63 2/2/62 1/1/64
f 9/9/65 1/1/66 7/7/67
f 7/7/67 1/1/66 5/5/68
usemtl lambert16SG
f 4/4/69 22/23/70 3/3/71
f 3/3/71 22/23/70 21/22/72
f 6/6/73 23/24/74 4/4/75
f 4/4/75 23/24/74 22/23/76
f 12/12/77 11/11/78 30/35/79
f 30/35/79 11/11/78 28/36/80
usemtl lambert12SG
f 22/56/81 44/72/82 21/55/83
f 21/55/83 44/72/82 43/71/84
f 22/56/85 23/57/86 44/72/87
f 44/72/87 23/57/86 45/73/88
f 23/57/89 25/58/90 45/73/91
f 45/73/91 25/58/90 46/74/92
f 46/74/93 25/58/94 47/75/95
f 47/75/95 25/58/94 30/59/96
f 30/59/97 28/60/98 47/75/99
f 47/75/99 28/60/98 48/76/100
f 48/76/101 43/71/102 47/75/103
f 47/75/103 43/71/102 46/74/104
f 46/74/104 43/71/102 45/73/105
f 43/71/102 44/72/106 45/73/105
usemtl lambert16SG
f 10/10/107 26/42/108 15/15/109
f 15/15/109 26/42/108 31/41/110
f 31/38/111 29/37/112 15/15/113
f 15/15/113 29/37/112 13/13/114
f 29/33/115 28/32/116 13/13/117
f 13/13/117 28/32/116 11/11/118
usemtl lambert12SG
f 21/55/119 43/71/120 20/54/121
f 20/54/121 43/71/120 42/70/122
f 28/60/123 29/45/124 48/76/125
f 48/76/125 29/45/124 34/61/126
f 34/61/127 42/70/128 48/76/129
f 48/76/129 42/70/128 43/71/130
f 27/48/131 36/64/132 26/47/133
f 26/47/133 36/64/132 35/63/134
f 24/49/135 37/65/136 27/48/137
f 27/48/137 37/65/136 36/64/138
f 24/49/139 19/50/140 37/65/141
f 37/65/141 19/50/140 38/66/142
f 19/50/143 17/51/144 38/66/145
f 38/66/145 17/51/144 39/67/146
f 60/94/147 35/63/148 59/93/149
f 59/93/149 35/63/148 36/64/150
f 61/95/151 59/93/152 37/65/153
f 37/65/153 59/93/152 36/64/154
f 62/96/155 61/95/156 38/66/157
f 38/66/157 61/95/156 37/65/158
f 62/96/159 38/66/160 63/97/161
f 63/97/161 38/66/160 39/67/162
f 31/46/163 26/47/164 33/62/165
f 33/62/165 26/47/164 35/63/166
f 17/51/167 18/52/168 39/67/169
f 39/67/169 18/52/168 40/68/170
f 32/53/171 41/69/172 18/52/173
f 18/52/173 41/69/172 40/68/174
f 29/45/175 31/46/176 34/61/177
f 34/61/177 31/46/176 33/62/178
f 20/54/179 42/70/180 32/53/181
f 32/53/181 42/70/180 41/69/182
f 57/85/183 64/98/184 41/69/185
f 41/69/185 64/98/184 40/68/186
f 52/80/187 51/79/188 60/94/189
f 60/94/189 51/79/188 58/86/190
f 64/98/191 63/97/192 40/68/193
f 40/68/193 63/97/192 39/67/194
f 50/78/195 57/85/196 51/79/197
f 51/79/197 57/85/196 58/86/198
f 42/70/128 34/61/127 57/85/199
f 57/85/199 34/61/127 58/86/200
f 58/87/201 34/88/202 33/89/203
f 41/90/204 42/91/205 57/92/206
f 58/86/207 33/62/208 60/94/209
f 60/94/209 33/62/208 35/63/210
f 64/98/211 57/85/212 49/77/213
f 49/77/213 57/85/212 50/78/214
f 63/97/215 64/98/216 56/84/217
f 56/84/217 64/98/216 49/77/218
f 63/97/219 56/84/220 62/96/221
f 62/96/221 56/84/220 55/83/222
f 61/95/223 62/96/224 54/82/225
f 54/82/225 62/96/224 55/83/226
f 59/93/227 61/95/228 53/81/229
f 53/81/229 61/95/228 54/82/230
f 60/94/231 59/93/232 52/80/233
f 52/80/233 59/93/232 53/81/234
