# This file uses centimeters as units for non-parametric coordinates.

mtllib torso.mtl
v 2.240521 12.637230 -5.844666
v -0.044475 12.637230 -8.265609
v -2.329471 12.637230 -5.844666
v -2.329471 12.637230 5.844666
v -0.044475 12.637230 8.265609
v 2.240521 12.637230 5.844666
v 1.357200 13.849373 -1.368136
v -0.000000 13.849373 -1.934837
v -1.357200 13.849373 -1.368136
v -1.919370 13.849373 -0.000000
v -1.357200 13.849373 1.368136
v -0.000000 13.849373 1.934837
v 1.357200 13.849373 1.368136
v 1.919370 13.849373 -0.000000
v -3.346521 12.637230 -0.531333
v -3.102093 12.909957 -0.000000
v -3.346521 12.637230 0.531333
v 3.156697 12.637230 0.649407
v 2.833560 12.777451 -0.000000
v 3.156697 12.637230 -0.649407
v -2.587834 8.141514 0.724284
v -1.536018 8.141617 4.770650
v -2.135599 8.462429 -0.000000
v -2.587834 8.141514 -0.724284
v -1.536019 8.141617 -4.770648
v -0.044098 8.142459 -5.934625
v 1.435964 8.143309 -4.779899
v 2.370395 8.143410 -0.878003
v 1.776989 8.308616 -0.000000
v 2.370395 8.143410 0.878002
v 1.435966 8.143309 4.779899
v -0.044098 8.142459 5.934625
v 3.599586 12.155180 -1.268936
v 2.922736 12.151917 -5.284572
v 2.991466 8.529195 -1.457482
v 2.248372 8.532536 -4.422114
v 2.922736 12.151917 5.284572
v 3.599586 12.155180 1.268936
v 2.248373 8.532536 4.422114
v 2.991466 8.529195 1.457481
v 1.747441 8.143343 -3.479267
v 1.747442 8.143343 3.479265
v 1.201205 6.725413 4.706955
v 1.540234 6.725403 3.575306
v -0.035373 6.724169 5.478156
v -1.296889 6.722953 4.691405
v -2.519426 6.723128 0.931874
v -1.792114 7.043597 -0.000000
v -2.519426 6.723128 -0.931874
v -1.296890 6.722953 -4.691402
v -0.035373 6.724169 -5.478156
v 1.201205 6.725413 -4.706955
v 1.540233 6.725403 -3.575308
v 2.273974 6.725291 -0.298377
v 2.300344 6.738975 -0.000000
v 2.273974 6.725291 0.298377
v 1.230144 5.462378 4.525929
v 1.259081 4.199343 4.344903
v 1.288020 2.936308 4.163876
v 1.580892 5.462283 3.437802
v 1.621550 4.199162 3.300298
v 1.662208 2.936041 3.162794
v -0.049181 5.461445 5.267469
v -0.062989 4.198720 5.056784
v -0.076797 2.935995 4.846097
v -1.354305 5.460546 4.510976
v -1.411721 4.198137 4.330547
v -1.469137 2.935730 4.150120
v -2.619103 5.461027 0.896035
v -2.718780 4.198927 0.860195
v -2.818458 2.936827 0.824356
v -1.866796 5.781315 -0.000000
v -1.941478 4.519034 -0.000000
v -2.016161 3.256752 -0.000000
v -2.619103 5.461027 -0.896035
v -2.718780 4.198927 -0.860196
v -2.818458 2.936827 -0.824357
v -1.354306 5.460546 -4.510974
v -1.411722 4.198138 -4.330546
v -1.469137 2.935730 -4.150118
v -0.049181 5.461445 -5.267469
v -0.062989 4.198720 -5.056784
v -0.076797 2.935995 -4.846097
v 1.230143 5.462378 -4.525929
v 1.259081 4.199343 -4.344903
v 1.288019 2.936308 -4.163876
v 1.580891 5.462283 -3.437804
v 1.621549 4.199162 -3.300301
v 1.662206 2.936041 -3.162797
v 2.339996 5.461986 -0.286902
v 2.406018 4.198681 -0.275426
v 2.472040 2.935375 -0.263951
v 2.367271 5.475663 0.000000
v 2.434198 4.212352 0.000000
v 2.501126 2.949040 0.000000
v 2.339996 5.461986 0.286901
v 2.406018 4.198681 0.275426
v 2.472040 2.935375 0.263951
v 2.430415 6.534707 -0.511926
v 1.786056 6.577211 -3.395517
v 2.490983 5.616834 -0.478228
v 1.819518 5.657768 -3.250050
v 2.494728 5.274105 -0.491822
v 1.828094 5.310918 -3.265568
v 2.555378 4.356643 -0.460646
v 1.861475 4.392053 -3.122483
v 2.559014 4.013253 -0.471950
v 1.870108 4.044942 -3.135627
v 2.619748 3.096137 -0.443159
v 1.903404 3.126582 -2.994780
v 2.430416 6.534706 0.511926
v 1.786058 6.577211 3.395515
v 1.819519 5.657768 3.250048
v 2.490983 5.616834 0.478228
v 2.494728 5.274106 0.491822
v 1.828095 5.310918 3.265566
v 1.861477 4.392053 3.122481
v 2.555378 4.356643 0.460646
v 2.559014 4.013251 0.471950
v 1.870110 4.044942 3.135624
v 1.903405 3.126582 2.994778
v 2.619748 3.096135 0.443159
v 1.271778 1.713214 4.036129
v 1.645966 1.712947 3.065760
v -0.093038 1.712901 4.697420
v -1.485378 1.712636 4.022795
v -2.834699 1.713733 0.799065
v -2.032402 2.033658 -0.000000
v -2.834699 1.713733 -0.799065
v -1.485379 1.712636 -4.022793
v -0.093039 1.712901 -4.697420
v 1.271778 1.713214 -4.036129
v 1.645964 1.712947 -3.065762
v 2.455798 1.712281 -0.255853
v 2.484884 1.725946 0.000000
v 2.455798 1.712281 0.255853
v 1.250820 -1.169614 4.036129
v 1.625008 -1.169881 3.065759
v -0.113997 -1.169926 4.697420
v -1.506337 -1.170192 4.022795
v -2.855657 -1.169095 0.799065
v -2.053361 -0.849170 -0.000001
v -2.855657 -1.169095 -0.799066
v -1.506337 -1.170192 -4.022793
v -0.113997 -1.169926 -4.697420
v 1.250819 -1.169614 -4.036129
v 1.625006 -1.169881 -3.065763
v 2.434840 -1.170546 -0.255853
v 2.463926 -1.156882 -0.000000
v 2.434840 -1.170546 0.255852
vt 0.375000 0.500470
vt 0.406250 0.500470
vt 0.437500 0.500470
vt 0.500000 0.500470
vt 0.531250 0.500470
vt 0.562500 0.500470
vt 0.625000 0.500470
vt 0.375000 0.688440
vt 0.406250 0.688440
vt 0.437500 0.688440
vt 0.468750 0.688440
vt 0.500000 0.688440
vt 0.531250 0.688440
vt 0.562500 0.688440
vt 0.593750 0.688440
vt 0.625000 0.688440
vt 0.468750 0.551734
vt 0.465909 0.500470
vt 0.471591 0.500470
vt 0.593750 0.584012
vt 0.590278 0.500470
vt 0.597222 0.500470
vt 0.164352 0.000000
vt 0.493734 0.000000
vt 0.523960 0.017205
vt 0.558016 0.010122
vt 0.871458 0.111345
vt 1.000000 0.248114
vt 0.835648 0.338762
vt 0.514199 0.334867
vt 0.477448 0.312591
vt 0.435632 0.322495
vt 0.128542 0.227417
vt 0.000000 0.090648
vt 0.164352 0.000000
vt 0.493734 0.000000
vt 0.523960 0.017205
vt 0.558016 0.010122
vt 0.871458 0.111345
vt 1.000000 0.248114
vt 0.835648 0.338762
vt 0.514199 0.334867
vt 0.477448 0.312591
vt 0.435632 0.322495
vt 0.128542 0.227417
vt 0.000000 0.090648
vt 0.835648 0.338762
vt 0.514199 0.334867
vt 0.514199 0.334867
vt 0.835648 0.338762
vt 0.435632 0.322495
vt 0.128542 0.227417
vt 0.128542 0.227417
vt 0.435632 0.322495
vt 0.728498 0.337463
vt 0.230905 0.259109
vt 0.230905 0.259109
vt 0.128542 0.227417
vt 0.000000 0.090648
vt 0.164352 0.000000
vt 0.493734 0.000000
vt 0.523960 0.017205
vt 0.558016 0.010122
vt 0.871458 0.111345
vt 1.000000 0.248114
vt 0.835648 0.338762
vt 0.728498 0.337463
vt 0.514199 0.334867
vt 0.477448 0.312591
vt 0.435632 0.322495
vt 0.230905 0.259109
vt 0.230905 0.259109
vt 0.230905 0.259109
vt 0.128542 0.227417
vt 0.128542 0.227417
vt 0.128542 0.227417
vt 0.000000 0.090648
vt 0.000000 0.090648
vt 0.000000 0.090648
vt 0.164352 0.000000
vt 0.164352 0.000000
vt 0.164352 0.000000
vt 0.493734 0.000000
vt 0.493734 0.000000
vt 0.493734 0.000000
vt 0.523960 0.017205
vt 0.523960 0.017205
vt 0.523960 0.017205
vt 0.558016 0.010122
vt 0.558016 0.010122
vt 0.558016 0.010122
vt 0.871458 0.111345
vt 0.871458 0.111345
vt 0.871458 0.111345
vt 1.000000 0.248114
vt 1.000000 0.248114
vt 1.000000 0.248114
vt 0.835648 0.338762
vt 0.835648 0.338762
vt 0.835648 0.338762
vt 0.728498 0.337463
vt 0.728498 0.337463
vt 0.728498 0.337463
vt 0.514199 0.334867
vt 0.514199 0.334867
vt 0.514199 0.334867
vt 0.477448 0.312591
vt 0.477448 0.312591
vt 0.477448 0.312591
vt 0.435632 0.322495
vt 0.435632 0.322495
vt 0.435632 0.322495
vt 0.728498 0.337463
vt 0.514199 0.334867
vt 0.514199 0.334867
vt 0.728498 0.337463
vt 0.728498 0.337463
vt 0.514199 0.334867
vt 0.514199 0.334867
vt 0.728498 0.337463
vt 0.728498 0.337463
vt 0.514199 0.334867
vt 0.514199 0.334867
vt 0.728498 0.337463
vt 0.435632 0.322495
vt 0.230905 0.259109
vt 0.230905 0.259109
vt 0.435632 0.322495
vt 0.435632 0.322495
vt 0.230905 0.259109
vt 0.230905 0.259109
vt 0.435632 0.322495
vt 0.435632 0.322495
vt 0.230905 0.259109
vt 0.230905 0.259109
vt 0.435632 0.322495
vt 0.230905 0.259109
vt 0.128542 0.227417
vt 0.000000 0.090648
vt 0.164352 0.000000
vt 0.493734 0.000000
vt 0.523960 0.017205
vt 0.558016 0.010122
vt 0.871458 0.111345
vt 1.000000 0.248114
vt 0.835648 0.338762
vt 0.728498 0.337463
vt 0.514199 0.334867
vt 0.477448 0.312591
vt 0.435632 0.322495
vt 0.230905 0.259109
vt 0.128542 0.227417
vt 0.000000 0.090648
vt 0.164352 0.000000
vt 0.493734 0.000000
vt 0.523960 0.017205
vt 0.558016 0.010122
vt 0.871458 0.111345
vt 1.000000 0.248114
vt 0.835648 0.338762
vt 0.728498 0.337463
vt 0.514199 0.334867
vt 0.477448 0.312591
vt 0.435632 0.322495
vn 0.001298 0.571263 -0.820766
vn -0.739909 0.434839 -0.513274
vn 0.000873 0.976561 -0.215237
vn -0.466272 0.863379 -0.192787
vn 0.001299 0.571263 0.820766
vn 0.000873 0.976561 0.215237
vn -0.739909 0.434839 0.513274
vn -0.466272 0.863379 0.192787
vn -0.621961 0.783048 -0.000000
vn -0.829856 0.557977 0.000000
vn -0.979411 0.184509 -0.081923
vn -0.979411 0.184509 0.081923
vn 0.640456 0.555316 -0.530510
vn 0.254326 0.944990 -0.205698
vn 0.640456 0.555316 0.530510
vn 0.254326 0.944990 0.205698
vn 0.967680 0.252181 0.000000
vn 0.880758 0.318441 0.350514
vn 0.622926 0.782280 -0.000000
vn 0.880758 0.318441 -0.350514
vn 0.826577 0.167280 -0.537389
vn 0.997006 0.060112 0.048646
vn 0.826577 0.167281 0.537389
vn 0.997006 0.060112 -0.048646
vn -0.809744 -0.525039 -0.262008
vn -0.737772 -0.675050 -0.000000
vn -0.629379 -0.665418 0.401373
vn -0.809744 -0.525039 0.262008
vn -0.537533 -0.770408 -0.342826
vn 0.921824 -0.328891 -0.205113
vn 0.770122 -0.637897 0.000001
vn 0.547536 -0.813513 -0.195962
vn 0.921824 -0.328891 0.205113
vn 0.650338 -0.723128 0.232694
vn 0.452014 -0.700457 0.552308
vn 0.452188 -0.700387 -0.552253
vn -0.096335 -0.796059 0.597503
vn -0.133140 -0.549134 -0.825061
vn -0.836205 -0.186041 0.515898
vn -0.946087 -0.142657 -0.290806
vn -0.976760 -0.214336 0.000000
vn -0.946087 -0.142657 0.290806
vn -0.836205 -0.186041 -0.515897
vn 0.000357 -0.370672 -0.928764
vn 0.692057 -0.324670 -0.644706
vn 0.767308 -0.543506 -0.340351
vn 0.816996 -0.532777 0.220605
vn 0.999605 0.028114 -0.000000
vn 0.934124 -0.256768 0.247959
vn 0.934124 -0.256767 -0.247959
vn 0.767308 -0.543506 0.340351
vn 0.816996 -0.532777 -0.220605
vn 0.000357 -0.370672 0.928764
vn 0.692057 -0.324670 0.644706
vn 0.745821 -0.641378 -0.179961
vn 0.745821 -0.641378 0.179961
vn 0.937883 0.014995 0.346629
vn 0.730282 -0.123800 0.671834
vn 0.000245 -0.207161 0.978307
vn -0.724960 -0.116610 0.678848
vn -0.993137 -0.019978 -0.115239
vn -0.993235 -0.116120 0.000000
vn -0.993137 -0.019978 0.115239
vn -0.724961 -0.116610 -0.678847
vn 0.000244 -0.207161 -0.978307
vn 0.730282 -0.123800 -0.671834
vn 0.937882 0.014995 -0.346629
vn 0.959686 0.276676 0.049524
vn 0.982548 0.186007 -0.000000
vn 0.959686 0.276676 -0.049524
vn 0.769096 -0.076732 0.634511
vn 0.844493 -0.026096 0.534931
vn 0.751695 -0.079810 0.654664
vn 0.831799 -0.029627 0.554286
vn 0.735650 -0.075400 0.673152
vn 0.857500 -0.151910 0.491546
vn -0.000435 -0.150439 0.988619
vn -0.000410 -0.150907 0.988548
vn -0.000377 -0.136623 0.990623
vn -0.762585 -0.052326 0.644768
vn -0.744549 -0.055572 0.665251
vn -0.727826 -0.049749 0.683955
vn -0.981827 0.063008 -0.179013
vn -0.980530 0.062260 -0.186238
vn -0.980028 0.030089 -0.196569
vn -0.997325 0.073096 0.000000
vn -0.997283 0.073667 0.000000
vn -0.998235 0.059388 0.000000
vn -0.981827 0.063008 0.179013
vn -0.980530 0.062260 0.186238
vn -0.980028 0.030089 0.196569
vn -0.762585 -0.052326 -0.644768
vn -0.744549 -0.055572 -0.665251
vn -0.727826 -0.049749 -0.683955
vn -0.000436 -0.150439 -0.988619
vn -0.000410 -0.150907 -0.988548
vn -0.000377 -0.136624 -0.990623
vn 0.769096 -0.076732 -0.634511
vn 0.751695 -0.079810 -0.654664
vn 0.735650 -0.075400 -0.673152
vn 0.844493 -0.026096 -0.534930
vn 0.831799 -0.029627 -0.554286
vn 0.857499 -0.151911 -0.491546
vn 0.812614 0.306078 -0.495958
vn 0.967737 0.202199 0.150334
vn 0.876920 -0.332726 -0.346851
vn 0.958603 -0.259340 0.117573
vn 0.802518 0.304050 -0.513340
vn 0.968060 0.203507 0.146440
vn 0.870181 -0.332674 -0.363473
vn 0.959854 -0.257990 0.110099
vn 0.791630 0.301913 -0.531197
vn 0.968484 0.204737 0.141849
vn 0.862682 -0.332652 -0.380948
vn 0.961022 -0.257066 0.101752
vn 0.998628 0.052372 0.000000
vn 0.992113 0.046182 0.116528
vn 0.998629 0.052350 0.000000
vn 0.992556 0.046070 0.112738
vn 0.999541 0.030279 0.000000
vn 0.985387 -0.170221 0.006113
vn 0.992113 0.046182 -0.116528
vn 0.992556 0.046070 -0.112738
vn 0.985387 -0.170222 -0.006113
vn 0.812614 0.306078 0.495959
vn 0.876919 -0.332726 0.346851
vn 0.967737 0.202199 -0.150334
vn 0.958603 -0.259340 -0.117573
vn 0.802518 0.304051 0.513340
vn 0.870181 -0.332674 0.363473
vn 0.968060 0.203507 -0.146440
vn 0.959854 -0.257990 -0.110100
vn 0.791631 0.301912 0.531196
vn 0.862682 -0.332652 0.380948
vn 0.968484 0.204737 -0.141850
vn 0.961021 -0.257068 -0.101754
vn 0.812635 -0.036996 0.581597
vn 0.952640 -0.018419 0.303544
vn 0.069102 -0.064444 0.995526
vn -0.719992 -0.017639 0.693758
vn -0.979262 0.010466 -0.202328
vn -0.999836 0.018100 0.000000
vn -0.979262 0.010466 0.202328
vn -0.719992 -0.017639 -0.693758
vn 0.069101 -0.064444 -0.995526
vn 0.812635 -0.036996 -0.581597
vn 0.952640 -0.018418 -0.303544
vn 0.983789 -0.010028 -0.179048
vn 0.999934 -0.011525 0.000000
vn 0.983789 -0.010028 0.179048
usemtl initialShadingGroup
f 2/2/1 3/3/2 8/9/3
f 8/9/3 3/3/2 9/10/4
f 5/5/5 12/13/6 4/4/7
f 4/4/7 12/13/6 11/12/8
f 10/11/9 16/17/10 11/12/8
f 16/17/10 17/19/11 11/12/8
f 17/19/11 4/4/7 11/12/8
f 10/11/9 9/10/4 16/17/10
f 16/17/10 9/10/4 15/18/12
f 15/18/12 9/10/4 3/3/2
f 2/2/1 8/9/3 1/1/13
f 1/1/13 8/9/3 7/8/14
f 5/5/5 6/6/15 12/13/6
f 12/13/6 6/6/15 13/14/16
f 19/20/17 20/22/18 14/15/19
f 20/22/18 1/7/13 14/15/19
f 1/7/13 7/16/14 14/15/19
f 19/20/17 14/15/19 18/21/20
f 18/21/20 14/15/19 6/6/15
f 14/15/19 13/14/16 6/6/15
f 1/29/13 20/30/18 34/47/21
f 34/47/21 20/30/18 33/48/22
f 6/33/15 37/52/23 18/32/20
f 18/32/20 37/52/23 38/51/24
f 141/155/25 142/156/26 140/154/27
f 143/157/28 144/158/29 142/156/26
f 148/162/30 149/163/31 147/161/32
f 150/164/33 138/151/34 149/163/31
f 149/163/31 138/151/34 147/161/32
f 138/151/34 137/152/35 147/161/32
f 147/161/32 137/152/35 146/160/36
f 142/156/26 144/158/29 140/154/27
f 137/152/35 139/153/37 146/160/36
f 140/154/27 144/158/29 139/153/37
f 144/158/29 145/159/38 139/153/37
f 139/153/37 145/159/38 146/160/36
f 4/23/7 17/24/11 22/35/39
f 22/35/39 17/24/11 21/36/40
f 16/25/10 23/37/41 17/24/11
f 17/24/11 23/37/41 21/36/40
f 16/25/10 15/26/12 23/37/41
f 23/37/41 15/26/12 24/38/42
f 3/27/2 25/39/43 15/26/12
f 15/26/12 25/39/43 24/38/42
f 2/28/1 26/40/44 3/27/2
f 3/27/2 26/40/44 25/39/43
f 2/28/1 1/29/13 26/40/44
f 26/40/44 1/29/13 27/41/45
f 34/47/21 33/48/22 36/50/46
f 36/50/46 33/48/22 35/49/47
f 19/31/17 29/43/48 20/30/18
f 20/30/18 29/43/48 28/42/49
f 19/31/17 18/32/20 29/43/48
f 29/43/48 18/32/20 30/44/50
f 37/52/23 39/53/51 38/51/24
f 38/51/24 39/53/51 40/54/52
f 5/34/5 32/46/53 6/33/15
f 6/33/15 32/46/53 31/45/54
f 5/34/5 4/23/7 32/46/53
f 32/46/53 4/23/7 22/35/39
f 33/48/22 20/30/18 35/49/47
f 35/49/47 20/30/18 28/42/49
f 27/41/45 36/50/46 41/55/55
f 36/50/46 35/49/47 41/55/55
f 35/49/47 28/42/49 41/55/55
f 1/29/13 34/47/21 27/41/45
f 27/41/45 34/47/21 36/50/46
f 6/33/15 31/45/54 37/52/23
f 37/52/23 31/45/54 39/53/51
f 31/45/54 42/56/56 39/53/51
f 39/53/51 42/56/56 40/54/52
f 42/56/56 30/44/50 40/54/52
f 30/44/50 18/32/20 40/54/52
f 40/54/52 18/32/20 38/51/24
f 42/56/56 31/45/54 44/57/57
f 44/57/57 31/45/54 43/58/58
f 32/46/53 45/59/59 31/45/54
f 31/45/54 45/59/59 43/58/58
f 32/46/53 22/35/39 45/59/59
f 45/59/59 22/35/39 46/60/60
f 21/36/40 47/61/61 22/35/39
f 22/35/39 47/61/61 46/60/60
f 23/37/41 48/62/62 21/36/40
f 21/36/40 48/62/62 47/61/61
f 23/37/41 24/38/42 48/62/62
f 48/62/62 24/38/42 49/63/63
f 24/38/42 25/39/43 49/63/63
f 49/63/63 25/39/43 50/64/64
f 26/40/44 51/65/65 25/39/43
f 25/39/43 51/65/65 50/64/64
f 26/40/44 27/41/45 51/65/65
f 51/65/65 27/41/45 52/66/66
f 41/55/55 53/67/67 27/41/45
f 27/41/45 53/67/67 52/66/66
f 41/55/55 28/42/49 53/67/67
f 53/67/67 28/42/49 54/68/68
f 28/42/49 29/43/48 54/68/68
f 54/68/68 29/43/48 55/69/69
f 30/44/50 56/70/70 29/43/48
f 29/43/48 56/70/70 55/69/69
f 42/56/56 44/57/57 30/44/50
f 30/44/50 44/57/57 56/70/70
f 43/58/58 57/74/71 44/57/57
f 44/57/57 57/74/71 60/71/72
f 57/74/71 58/75/73 60/71/72
f 60/71/72 58/75/73 61/72/74
f 58/75/73 59/76/75 61/72/74
f 61/72/74 59/76/75 62/73/76
f 45/59/59 63/77/77 43/58/58
f 43/58/58 63/77/77 57/74/71
f 63/77/77 64/78/78 57/74/71
f 57/74/71 64/78/78 58/75/73
f 64/78/78 65/79/79 58/75/73
f 58/75/73 65/79/79 59/76/75
f 45/59/59 46/60/60 63/77/77
f 63/77/77 46/60/60 66/80/80
f 63/77/77 66/80/80 64/78/78
f 64/78/78 66/80/80 67/81/81
f 64/78/78 67/81/81 65/79/79
f 65/79/79 67/81/81 68/82/82
f 46/60/60 47/61/61 66/80/80
f 66/80/80 47/61/61 69/83/83
f 66/80/80 69/83/83 67/81/81
f 67/81/81 69/83/83 70/84/84
f 67/81/81 70/84/84 68/82/82
f 68/82/82 70/84/84 71/85/85
f 48/62/62 72/86/86 47/61/61
f 47/61/61 72/86/86 69/83/83
f 72/86/86 73/87/87 69/83/83
f 69/83/83 73/87/87 70/84/84
f 73/87/87 74/88/88 70/84/84
f 70/84/84 74/88/88 71/85/85
f 48/62/62 49/63/63 72/86/86
f 72/86/86 49/63/63 75/89/89
f 72/86/86 75/89/89 73/87/87
f 73/87/87 75/89/89 76/90/90
f 73/87/87 76/90/90 74/88/88
f 74/88/88 76/90/90 77/91/91
f 50/64/64 78/92/92 49/63/63
f 49/63/63 78/92/92 75/89/89
f 78/92/92 79/93/93 75/89/89
f 75/89/89 79/93/93 76/90/90
f 79/93/93 80/94/94 76/90/90
f 76/90/90 80/94/94 77/91/91
f 51/65/65 81/95/95 50/64/64
f 50/64/64 81/95/95 78/92/92
f 81/95/95 82/96/96 78/92/92
f 78/92/92 82/96/96 79/93/93
f 82/96/96 83/97/97 79/93/93
f 79/93/93 83/97/97 80/94/94
f 51/65/65 52/66/66 81/95/95
f 81/95/95 52/66/66 84/98/98
f 81/95/95 84/98/98 82/96/96
f 82/96/96 84/98/98 85/99/99
f 82/96/96 85/99/99 83/97/97
f 83/97/97 85/99/99 86/100/100
f 52/66/66 53/67/67 84/98/98
f 84/98/98 53/67/67 87/101/101
f 84/98/98 87/101/101 85/99/99
f 85/99/99 87/101/101 88/102/102
f 85/99/99 88/102/102 86/100/100
f 86/100/100 88/102/102 89/103/103
f 100/113/104 99/114/105 102/116/106
f 102/116/106 99/114/105 101/115/107
f 104/117/108 103/118/109 106/120/110
f 106/120/110 103/118/109 105/119/111
f 108/121/112 107/122/113 110/124/114
f 110/124/114 107/122/113 109/123/115
f 55/69/69 93/107/116 54/68/68
f 54/68/68 93/107/116 90/104/117
f 93/107/116 94/108/118 90/104/117
f 90/104/117 94/108/118 91/105/119
f 94/108/118 95/109/120 91/105/119
f 91/105/119 95/109/120 92/106/121
f 55/69/69 56/70/70 93/107/116
f 93/107/116 56/70/70 96/110/122
f 93/107/116 96/110/122 94/108/118
f 94/108/118 96/110/122 97/111/123
f 94/108/118 97/111/123 95/109/120
f 95/109/120 97/111/123 98/112/124
f 112/126/125 113/127/126 111/125/127
f 111/125/127 113/127/126 114/128/128
f 116/130/129 117/131/130 115/129/131
f 115/129/131 117/131/130 118/132/132
f 120/134/133 121/135/134 119/133/135
f 119/133/135 121/135/134 122/136/136
f 53/67/67 54/68/68 100/113/104
f 100/113/104 54/68/68 99/114/105
f 54/68/68 90/104/117 99/114/105
f 99/114/105 90/104/117 101/115/107
f 87/101/101 102/116/106 90/104/117
f 90/104/117 102/116/106 101/115/107
f 53/67/67 100/113/104 87/101/101
f 87/101/101 100/113/104 102/116/106
f 87/101/101 90/104/117 104/117/108
f 104/117/108 90/104/117 103/118/109
f 90/104/117 91/105/119 103/118/109
f 103/118/109 91/105/119 105/119/111
f 88/102/102 106/120/110 91/105/119
f 91/105/119 106/120/110 105/119/111
f 87/101/101 104/117/108 88/102/102
f 88/102/102 104/117/108 106/120/110
f 88/102/102 91/105/119 108/121/112
f 108/121/112 91/105/119 107/122/113
f 91/105/119 92/106/121 107/122/113
f 107/122/113 92/106/121 109/123/115
f 89/103/103 110/124/114 92/106/121
f 92/106/121 110/124/114 109/123/115
f 88/102/102 108/121/112 89/103/103
f 89/103/103 108/121/112 110/124/114
f 44/57/57 112/126/125 56/70/70
f 56/70/70 112/126/125 111/125/127
f 44/57/57 60/71/72 112/126/125
f 112/126/125 60/71/72 113/127/126
f 60/71/72 96/110/122 113/127/126
f 113/127/126 96/110/122 114/128/128
f 56/70/70 111/125/127 96/110/122
f 96/110/122 111/125/127 114/128/128
f 60/71/72 116/130/129 96/110/122
f 96/110/122 116/130/129 115/129/131
f 60/71/72 61/72/74 116/130/129
f 116/130/129 61/72/74 117/131/130
f 61/72/74 97/111/123 117/131/130
f 117/131/130 97/111/123 118/132/132
f 96/110/122 115/129/131 97/111/123
f 97/111/123 115/129/131 118/132/132
f 61/72/74 120/134/133 97/111/123
f 97/111/123 120/134/133 119/133/135
f 61/72/74 62/73/76 120/134/133
f 120/134/133 62/73/76 121/135/134
f 62/73/76 98/112/124 121/135/134
f 121/135/134 98/112/124 122/136/136
f 97/111/123 119/133/135 98/112/124
f 98/112/124 119/133/135 122/136/136
f 59/76/75 123/138/137 62/73/76
f 62/73/76 123/138/137 124/137/138
f 65/79/79 125/139/139 59/76/75
f 59/76/75 125/139/139 123/138/137
f 65/79/79 68/82/82 125/139/139
f 125/139/139 68/82/82 126/140/140
f 68/82/82 71/85/85 126/140/140
f 126/140/140 71/85/85 127/141/141
f 74/88/88 128/142/142 71/85/85
f 71/85/85 128/142/142 127/141/141
f 74/88/88 77/91/91 128/142/142
f 128/142/142 77/91/91 129/143/143
f 80/94/94 130/144/144 77/91/91
f 77/91/91 130/144/144 129/143/143
f 83/97/97 131/145/145 80/94/94
f 80/94/94 131/145/145 130/144/144
f 83/97/97 86/100/100 131/145/145
f 131/145/145 86/100/100 132/146/146
f 86/100/100 89/103/103 132/146/146
f 132/146/146 89/103/103 133/147/147
f 89/103/103 92/106/121 133/147/147
f 133/147/147 92/106/121 134/148/148
f 95/109/120 135/149/149 92/106/121
f 92/106/121 135/149/149 134/148/148
f 95/109/120 98/112/124 135/149/149
f 135/149/149 98/112/124 136/150/150
f 62/73/76 124/137/138 98/112/124
f 98/112/124 124/137/138 136/150/150
f 124/137/138 123/138/137 138/151/34
f 138/151/34 123/138/137 137/152/35
f 123/138/137 125/139/139 137/152/35
f 137/152/35 125/139/139 139/153/37
f 125/139/139 126/140/140 139/153/37
f 139/153/37 126/140/140 140/154/27
f 126/140/140 127/141/141 140/154/27
f 140/154/27 127/141/141 141/155/25
f 128/142/142 142/156/26 127/141/141
f 127/141/141 142/156/26 141/155/25
f 128/142/142 129/143/143 142/156/26
f 142/156/26 129/143/143 143/157/28
f 130/144/144 144/158/29 129/143/143
f 129/143/143 144/158/29 143/157/28
f 131/145/145 145/159/38 130/144/144
f 130/144/144 145/159/38 144/158/29
f 132/146/146 146/160/36 131/145/145
f 131/145/145 146/160/36 145/159/38
f 133/147/147 147/161/32 132/146/146
f 132/146/146 147/161/32 146/160/36
f 134/148/148 148/162/30 133/147/147
f 133/147/147 148/162/30 147/161/32
f 135/149/149 149/163/31 134/148/148
f 134/148/148 149/163/31 148/162/30
f 135/149/149 136/150/150 149/163/31
f 149/163/31 136/150/150 150/164/33
f 136/150/150 124/137/138 150/164/33
f 150/164/33 124/137/138 138/151/34
